<svg id="Capa_1" data-name="Capa 1" xmlns="http://www.w3.org/2000/svg" width="2038.04" height="1256.58" viewBox="0 0 2038.04 1256.58">
  <defs>
    <style>
      .cls-1 {
        fill: #f12415;
      }

      .cls-2 {
        fill: #fff;
      }
    </style>
  </defs>
  <g>
    <rect class="cls-1" width="2038.04" height="1256.58" rx="61.01"/>
    <g>
      <path class="cls-2" d="M735.48-372.15q-66.59,65.81-172.36,65.79T390.76-372.15Q324.18-438,324.18-542.7t66.58-170.55Q457.35-779,563.12-779t172.36,65.79q66.57,65.81,66.58,170.55T735.48-372.15ZM481.67-460.63q31.88,32.08,81.45,32.07t81.45-32.07q31.86-32.07,31.86-82.07t-31.86-82.07q-31.87-32.07-81.45-32.08t-81.45,32.08q-31.86,32.07-31.86,82.07T481.67-460.63Z" transform="translate(118.04 1256.58)"/>
      <path class="cls-2" d="M1096.41-779q92.82,0,139.23,59.19t46.41,164v238.54H1148.91V-565.73q0-44.44-20.72-68.43c-13.81-16-41.86-26.47-64.59-26.47-25.33,0-55.62,11.36-69.86,29.11s-21.37,43.35-21.37,76.8v237.36H840V-948.49h132.4v204.66C1003.46-767.31,1051.8-779,1096.41-779Z" transform="translate(118.04 1256.58)"/>
      <path class="cls-2" d="M1316.81-948.49H1470v261.36l-17.43,178.76H1333.78l-17-178.76Zm134.12,614.25q-24.24,23.57-58.14,23.56t-58.4-23.56q-24.51-23.56-24.5-56.49t24.5-56.49q24.49-23.56,58.4-23.56t58.14,23.56q24.24,23.55,24.25,56.49T1450.93-334.24Z" transform="translate(118.04 1256.58)"/>
    </g>
  </g>
</svg>
